<?xml version="1.0" encoding="UTF-8" standalone="no"?>
<!DOCTYPE svg PUBLIC "-//W3C//DTD SVG 1.1//EN" "http://www.w3.org/Graphics/SVG/1.1/DTD/svg11.dtd">
<svg width="100%" height="100%" viewBox="0 0 25 25" version="1.1" xmlns="http://www.w3.org/2000/svg" xmlns:xlink="http://www.w3.org/1999/xlink" xml:space="preserve" xmlns:serif="http://www.serif.com/" style="fill-rule:evenodd;clip-rule:evenodd;stroke-linejoin:round;stroke-miterlimit:1.41421;">
    <g id="Artboard1" transform="matrix(0.949743,0,0,1.26593,-1.39493,-4.22143)">
        <rect x="1.469" y="3.335" width="26.323" height="19.714" style="fill:none;"/>
        <g transform="matrix(1.05292,0,0,0.789931,1.99521,3.71212)">
            <path d="M12,1.005C5.989,1.005 1.121,6.05 1.121,12.278C1.121,17.267 4.235,21.48 8.56,22.974C9.104,23.072 9.308,22.734 9.308,22.438C9.308,22.17 9.294,21.283 9.294,20.339C6.561,20.86 5.853,19.648 5.636,19.014C5.514,18.69 4.983,17.689 4.521,17.422C4.14,17.21 3.596,16.689 4.507,16.675C5.364,16.661 5.976,17.492 6.18,17.83C7.159,19.535 8.723,19.056 9.348,18.76C9.443,18.028 9.729,17.534 10.042,17.252C7.621,16.971 5.092,15.998 5.092,11.686C5.092,10.46 5.514,9.446 6.207,8.657C6.098,8.375 5.718,7.219 6.316,5.669C6.316,5.669 7.227,5.373 9.308,6.825C10.178,6.571 11.103,6.444 12.027,6.444C12.952,6.444 13.877,6.571 14.747,6.825C16.827,5.359 17.739,5.669 17.739,5.669C18.337,7.219 17.956,8.375 17.847,8.657C18.541,9.446 18.962,10.446 18.962,11.686C18.962,16.012 16.419,16.971 13.999,17.252C14.393,17.605 14.733,18.281 14.733,19.338C14.733,20.846 14.72,22.058 14.72,22.438C14.72,22.734 14.924,23.086 15.468,22.974C19.885,21.428 22.878,17.109 22.879,12.278C22.879,6.05 18.011,1.005 12,1.005Z" style="fill:white;"/>
        </g>
    </g>
</svg>
